<svg width="27" height="24" viewBox="0 0 27 24" fill="none" xmlns="http://www.w3.org/2000/svg">
<path d="M3.588 23.297C3.588 23.297 3.564 23.887 4.141 23.887C4.859 23.887 10.793 23.879 10.793 23.879L10.803 18.428C10.803 18.428 10.709 17.53 11.58 17.53H14.341C15.372 17.53 15.309 18.428 15.309 18.428L15.297 23.862C15.297 23.862 20.925 23.862 21.809 23.862C22.541 23.862 22.508 23.128 22.508 23.128V13.076L13.33 4.91299L3.588 13.077C3.588 13.077 3.588 23.297 3.588 23.297Z" fill="#DAD9E1"/>
<path d="M0 12.317C0 12.317 0.826 13.841 2.631 12.317L13.412 3.196L23.519 12.26C25.607 13.766 26.39 12.26 26.39 12.26L13.412 0.503998L0 12.317Z" fill="#DAD9E1"/>
<path d="M23.273 3.17499H20.674L20.685 6.32799L23.273 8.52499V3.17499Z" fill="#DAD9E1"/>
</svg>
