<svg width="24" height="24" viewBox="0 0 24 24" fill="none" xmlns="http://www.w3.org/2000/svg">
<path d="M11.998 2.5C10.1864 2.49976 8.41245 3.01737 6.88523 3.99181C5.358 4.96626 4.14113 6.35695 3.37801 8H5.75001C5.94893 8 6.13969 8.07902 6.28034 8.21967C6.421 8.36032 6.50001 8.55109 6.50001 8.75C6.50001 8.94891 6.421 9.13968 6.28034 9.28033C6.13969 9.42098 5.94893 9.5 5.75001 9.5H2.00001C1.7348 9.5 1.48044 9.39464 1.29291 9.20711C1.10537 9.01957 1.00001 8.76522 1.00001 8.5V4.75C1.00001 4.55109 1.07903 4.36032 1.21968 4.21967C1.36034 4.07902 1.5511 4 1.75001 4C1.94893 4 2.13969 4.07902 2.28034 4.21967C2.421 4.36032 2.50001 4.55109 2.50001 4.75V6.447C3.46951 4.78859 4.85651 3.41308 6.52292 2.45741C8.18934 1.50174 10.077 0.999261 11.998 1C18.074 1 23 5.925 23 12C23 18.075 18.074 23 11.998 23C6.01402 23 1.14601 18.223 1.00001 12.275C0.995108 12.0761 1.06942 11.8834 1.2066 11.7393C1.34379 11.5951 1.5326 11.5114 1.73151 11.5065C1.93043 11.5016 2.12314 11.5759 2.26726 11.7131C2.41139 11.8503 2.49511 12.0391 2.50001 12.238C2.56211 14.7157 3.59007 17.0711 5.36455 18.8015C7.13903 20.5319 9.5195 21.5003 11.998 21.5C17.246 21.5 21.5 17.247 21.5 12C21.5 6.753 17.246 2.5 11.998 2.5Z" fill="#DAD9E1"/>
<path d="M12.5 7.25C12.5 7.05109 12.421 6.86032 12.2803 6.71967C12.1397 6.57902 11.9489 6.5 11.75 6.5C11.5511 6.5 11.3603 6.57902 11.2197 6.71967C11.079 6.86032 11 7.05109 11 7.25V12.75C11 13.02 11.144 13.268 11.378 13.401L14.878 15.401C15.0503 15.4941 15.2522 15.5161 15.4405 15.4624C15.6288 15.4086 15.7886 15.2833 15.8858 15.1133C15.9829 14.9433 16.0097 14.742 15.9604 14.5524C15.9112 14.3629 15.7897 14.2002 15.622 14.099L12.5 12.315V7.25Z" fill="#DAD9E1"/>
</svg>
