<svg width="177" height="177" viewBox="0 0 177 177" fill="none" xmlns="http://www.w3.org/2000/svg">
<g clip-path="url(#clip0_3_32)">
<path d="M152.928 85.912L93.038 36.506C90.267 34.219 86.265 34.219 83.493 36.506L23.603 85.912C21.875 87.337 20.875 89.458 20.875 91.697V166.241C20.875 170.384 24.232 173.741 28.375 173.741H148.154C152.297 173.741 155.654 170.384 155.654 166.241V91.697C155.656 89.458 154.656 87.337 152.928 85.912ZM96.196 158.741H80.336V117.217H96.195V158.741H96.196ZM140.656 158.741H111.196V109.717C111.196 105.574 107.839 102.217 103.696 102.217H72.836C68.693 102.217 65.336 105.574 65.336 109.717V158.741H35.876V95.233L88.266 52.014L140.656 95.233V158.741Z" fill="#DAD9E1"/>
<path d="M173.72 70.866C157.014 57.484 141.262 44.688 124.159 30.605C119.05 26.014 113.68 21.667 108.484 17.461C103.397 13.343 98.136 9.08399 93.283 4.71599C90.429 2.14799 86.101 2.14799 83.248 4.71599C78.394 9.08399 73.134 13.343 68.047 17.461C62.852 21.666 57.482 26.014 52.372 30.605C35.27 44.689 19.518 57.484 2.812 70.866C-0.421 73.455 -0.943 78.176 1.647 81.408C4.236 84.64 8.958 85.163 12.189 82.573C28.991 69.116 44.829 56.249 62.034 42.08C62.119 42.011 62.202 41.939 62.284 41.865C67.138 37.497 72.398 33.238 77.485 29.12C81.044 26.24 84.684 23.293 88.266 20.247C91.848 23.293 95.489 26.24 99.047 29.12C104.134 33.238 109.395 37.497 114.248 41.865C114.33 41.939 114.413 42.011 114.498 42.08C131.702 56.249 147.541 69.116 164.343 82.573C165.727 83.681 167.382 84.219 169.027 84.219C171.225 84.219 173.404 83.257 174.885 81.407C177.475 78.176 176.953 73.455 173.72 70.866Z" fill="#DAD9E1"/>
</g>
<defs>
<clipPath id="clip0_3_32">
<rect width="176.532" height="176.532" fill="white"/>
</clipPath>
</defs>
</svg>
