<svg width="36" height="36" viewBox="0 0 36 36" fill="none" xmlns="http://www.w3.org/2000/svg">
<path d="M32.85 28.13L32.51 27.83C31.5454 26.9706 30.7011 25.985 30 24.9C29.2342 23.4025 28.7752 21.7672 28.65 20.09V15.15C28.6566 12.5156 27.701 9.96947 25.9627 7.98997C24.2244 6.01046 21.8231 4.73385 19.21 4.39999V3.10999C19.21 2.75593 19.0693 2.41637 18.819 2.16601C18.5686 1.91565 18.2291 1.77499 17.875 1.77499C17.5209 1.77499 17.1814 1.91565 16.931 2.16601C16.6806 2.41637 16.54 2.75593 16.54 3.10999V4.41999C13.9502 4.77792 11.578 6.06225 9.86252 8.0351C8.14707 10.008 7.20472 12.5356 7.20999 15.15V20.09C7.08474 21.7672 6.62577 23.4025 5.85999 24.9C5.17087 25.9823 4.34018 26.9677 3.38999 27.83L3.04999 28.13V30.95H32.85V28.13Z" fill="#3EEC13"/>
<path d="M15.32 32C15.4077 32.6339 15.7218 33.2146 16.2043 33.635C16.6868 34.0553 17.3051 34.2869 17.945 34.2869C18.5849 34.2869 19.2032 34.0553 19.6857 33.635C20.1682 33.2146 20.4823 32.6339 20.57 32H15.32Z" fill="#3EEC13"/>
</svg>
