<svg width="24" height="24" viewBox="0 0 24 24" fill="none" xmlns="http://www.w3.org/2000/svg">
<path d="M16 9C16 9.55228 15.5523 10 15 10C14.4477 10 14 9.55228 14 9C14 8.44772 14.4477 8 15 8C15.5523 8 16 8.44772 16 9Z" fill="#DAD9E1"/>
<path fill-rule="evenodd" clip-rule="evenodd" d="M9.58691 4.12322C12.4179 1.29226 17.0458 1.29226 19.8768 4.12322C22.6953 6.94169 22.7191 11.5677 19.88 14.2952C18.0615 16.2311 15.358 16.8615 12.9313 16.2249C12.7238 16.1741 12.5454 16.2233 12.4001 16.3685L6.99396 21.7747C6.84971 21.919 6.65405 22 6.45004 22H2.76923C2.3444 22 2 21.6556 2 21.2308V17.55C2 17.346 2.08104 17.1503 2.2253 17.006L7.63149 11.5999C7.67163 11.5597 7.69151 11.52 7.70049 11.4526C7.71144 11.3706 7.70421 11.2482 7.66135 11.0738C7.01586 8.73469 7.67118 6.03895 9.58691 4.12322ZM18.7889 5.21107C16.5588 2.98092 12.9049 2.98092 10.6748 5.21107C9.14265 6.74319 8.6468 8.87324 9.14663 10.6726L9.15173 10.6919C9.28828 11.2382 9.35592 12.0511 8.71934 12.6877L3.53846 17.8686V20.4615H6.13141L11.3123 15.2807C11.8564 14.7366 12.5969 14.5555 13.3081 14.7332L13.3173 14.7356C15.2533 15.245 17.3699 14.73 18.7705 13.2293C18.7806 13.2185 18.791 13.2079 18.8017 13.1977C21.0076 11.0921 21.0263 7.44841 18.7889 5.21107Z" fill="#DAD9E1"/>
</svg>
