<svg width="64" height="56" viewBox="0 0 64 56" fill="none" xmlns="http://www.w3.org/2000/svg">
<path d="M32 38C40.271 38 47 29.477 47 19C47 8.523 40.271 0 32 0C23.729 0 17 8.523 17 19C17 29.477 23.729 38 32 38ZM32 4C37.963 4 43 10.869 43 19C43 27.131 37.963 34 32 34C26.037 34 21 27.131 21 19C21 10.869 26.037 4 32 4Z" fill="#DAD9E1"/>
<path d="M4.103 41.367L0.103002 53.367C-0.099998 53.977 0.00200203 54.647 0.378002 55.169C0.753002 55.691 1.357 56 2 56H62C62.643 56 63.247 55.691 63.622 55.169C63.998 54.648 64.101 53.978 63.897 53.367L59.897 41.367C59.688 40.741 59.184 40.259 58.549 40.077L44.549 36.077C44.067 35.938 43.553 35.987 43.105 36.211L32 41.764L20.895 36.211C20.447 35.987 19.933 35.939 19.451 36.077L5.451 40.077C4.815 40.259 4.312 40.741 4.103 41.367ZM19.802 40.137L31.106 45.789C31.668 46.07 32.333 46.07 32.895 45.789L44.199 40.137L56.437 43.633L59.226 52H4.774L7.563 43.633L19.802 40.137Z" fill="#DAD9E1"/>
</svg>
