<svg width="54" height="54" viewBox="0 0 54 54" fill="none" xmlns="http://www.w3.org/2000/svg">
<path d="M51.22 21H46.168C45.356 21 44.687 20.553 44.376 19.803C44.065 19.053 44.223 18.263 44.796 17.689L48.368 14.118C48.893 13.593 49.182 12.894 49.182 12.152C49.182 11.409 48.893 10.711 48.368 10.185L43.815 5.632C42.765 4.582 40.934 4.58 39.882 5.632L36.311 9.203C35.737 9.776 34.945 9.936 34.197 9.624C33.447 9.313 33 8.644 33 7.832V2.78C33 1.247 31.753 0 30.22 0H23.78C22.247 0 21 1.247 21 2.78V7.832C21 8.644 20.553 9.313 19.803 9.624C19.055 9.937 18.263 9.776 17.689 9.203L14.118 5.632C13.066 4.58 11.235 4.582 10.185 5.632L5.632 10.185C5.107 10.71 4.818 11.409 4.818 12.152C4.818 12.894 5.107 13.592 5.632 14.118L9.204 17.689C9.777 18.263 9.934 19.053 9.624 19.803C9.314 20.553 8.644 21 7.832 21H2.78C1.247 21 0 22.247 0 23.78V30.219C0 31.753 1.247 33 2.78 33H7.832C8.644 33 9.313 33.447 9.624 34.197C9.935 34.947 9.777 35.737 9.204 36.311L5.632 39.882C5.107 40.407 4.818 41.106 4.818 41.848C4.818 42.591 5.107 43.289 5.632 43.815L10.185 48.368C11.236 49.419 13.066 49.421 14.118 48.368L17.689 44.796C18.263 44.223 19.052 44.065 19.803 44.376C20.553 44.687 21 45.356 21 46.168V51.22C21 52.753 22.247 54 23.78 54H30.219C31.752 54 32.999 52.753 32.999 51.22V46.168C32.999 45.356 33.446 44.687 34.196 44.376C34.947 44.064 35.736 44.223 36.31 44.796L39.881 48.368C40.933 49.42 42.764 49.418 43.814 48.368L48.367 43.815C48.892 43.29 49.181 42.591 49.181 41.848C49.181 41.106 48.892 40.408 48.367 39.882L44.795 36.311C44.222 35.737 44.065 34.947 44.375 34.197C44.685 33.447 45.356 33 46.168 33H51.22C52.753 33 54 31.753 54 30.22V23.78C54 22.247 52.753 21 51.22 21ZM52 30.22C52 30.65 51.65 31 51.22 31H46.168C44.544 31 43.149 31.932 42.528 33.432C41.906 34.932 42.233 36.578 43.382 37.726L46.954 41.297C47.259 41.602 47.259 42.097 46.954 42.401L42.401 46.954C42.097 47.258 41.602 47.26 41.297 46.954L37.726 43.382C36.577 42.233 34.932 41.908 33.432 42.528C31.932 43.149 31 44.544 31 46.168V51.22C31 51.65 30.65 52 30.22 52H23.78C23.35 52 23 51.65 23 51.22V46.168C23 44.544 22.068 43.149 20.568 42.528C20.065 42.319 19.547 42.217 19.035 42.217C18.021 42.217 17.038 42.617 16.274 43.381L12.703 46.953C12.397 47.259 11.902 47.257 11.599 46.953L7.046 42.4C6.741 42.095 6.741 41.6 7.046 41.296L10.618 37.725C11.766 36.577 12.094 34.931 11.472 33.431C10.851 31.932 9.456 31 7.832 31H2.78C2.35 31 2 30.65 2 30.22V23.78C2 23.35 2.35 23 2.78 23H7.832C9.456 23 10.851 22.068 11.472 20.568C12.094 19.068 11.767 17.422 10.618 16.274L7.046 12.703C6.741 12.398 6.741 11.903 7.046 11.599L11.599 7.046C11.903 6.741 12.398 6.741 12.703 7.046L16.274 10.617C17.421 11.764 19.066 12.093 20.568 11.471C22.068 10.851 23 9.456 23 7.832V2.78C23 2.35 23.35 2 23.78 2H30.219C30.65 2 31 2.35 31 2.78V7.832C31 9.456 31.932 10.851 33.432 11.472C34.934 12.094 36.578 11.766 37.726 10.618L41.297 7.047C41.603 6.742 42.098 6.742 42.401 7.047L46.954 11.6C47.259 11.905 47.259 12.4 46.954 12.704L43.382 16.275C42.234 17.423 41.906 19.069 42.528 20.569C43.149 22.069 44.544 23.001 46.168 23.001H51.22C51.65 23 52 23.35 52 23.78V30.22Z" fill="#DAD9E1"/>
<path d="M27 18C22.037 18 18 22.037 18 27C18 31.963 22.037 36 27 36C31.963 36 36 31.963 36 27C36 22.037 31.963 18 27 18ZM27 34C23.141 34 20 30.859 20 27C20 23.141 23.141 20 27 20C30.859 20 34 23.141 34 27C34 30.859 30.859 34 27 34Z" fill="#DAD9E1"/>
</svg>
