<svg width="366" height="459" viewBox="0 0 366 459" fill="none" xmlns="http://www.w3.org/2000/svg">
<path d="M293.588 314.529C279.373 314.529 266.132 318.662 254.967 325.768L142.285 247.098C144.094 240.783 145.083 234.122 145.083 227.227C145.083 220.331 144.094 213.67 142.285 207.356L251.925 130.809C263.689 139.165 278.058 144.095 293.587 144.095C333.377 144.095 365.634 111.838 365.634 72.048C365.634 32.258 333.378 0 293.588 0C253.798 0 221.541 32.257 221.541 72.047C221.541 77.302 222.119 82.42 223.187 87.355L110.763 165.846C99.789 159.087 86.871 155.18 73.036 155.18C33.246 155.18 0.988998 187.437 0.988998 227.227C0.988998 267.017 33.245 299.274 73.036 299.274C86.87 299.274 99.789 295.367 110.763 288.608L224.055 367.705C222.426 373.722 221.541 380.045 221.541 386.577C221.541 426.367 253.798 458.624 293.588 458.624C333.378 458.624 365.635 426.367 365.635 386.577C365.635 346.787 333.378 314.529 293.588 314.529Z" fill="#DAD9E1"/>
</svg>
