<svg width="24" height="24" viewBox="0 0 24 24" fill="none" xmlns="http://www.w3.org/2000/svg">
<path d="M9.75 20.001C9.74938 19.3961 9.94831 18.8078 10.316 18.3274C10.6836 17.8471 11.1995 17.5013 11.7835 17.3439C12.3676 17.1865 12.9873 17.2261 13.5466 17.4566C14.1059 17.6871 14.5735 18.0957 14.877 18.619C16.967 17.697 17.75 16.25 17.75 13.5V10.5C17.75 6.508 15.499 3.75 12 3.75C8.501 3.75 6.25 6.509 6.25 10.5V14C6.24974 14.1988 6.17063 14.3894 6.03004 14.53C5.88944 14.6706 5.69883 14.7497 5.5 14.75H4.5C3.77107 14.7492 3.07221 14.4594 2.55669 13.944C2.04116 13.4287 1.75106 12.7299 1.75 12.001L1.75 11.001C1.75079 10.2718 2.04075 9.57269 2.55627 9.05698C3.0718 8.54127 3.77081 8.25106 4.5 8.25H4.978C5.735 4.679 8.326 2.25 12 2.25C15.674 2.25 18.264 4.679 19.021 8.25H19.499C20.228 8.25106 20.9269 8.54113 21.4424 9.05662C21.9579 9.57212 22.2479 10.271 22.249 11V12C22.2482 12.7291 21.9582 13.4281 21.4427 13.9437C20.9271 14.4592 20.2281 14.7492 19.499 14.75H19.19C19.1514 15.9344 18.754 17.0792 18.0505 18.0327C17.3469 18.9863 16.3703 19.7037 15.25 20.09C15.2382 20.8193 14.9371 21.5141 14.4131 22.0215C13.889 22.5289 13.1848 22.8073 12.4555 22.7955C11.7262 22.7837 11.0314 22.4826 10.524 21.9586C10.0166 21.4345 9.7382 20.7303 9.75 20.001V20.001ZM11.25 20.001C11.25 20.2482 11.3233 20.4899 11.4607 20.6955C11.598 20.901 11.7932 21.0612 12.0216 21.1558C12.2501 21.2505 12.5014 21.2752 12.7439 21.227C12.9863 21.1788 13.2091 21.0597 13.3839 20.8849C13.5587 20.7101 13.6778 20.4873 13.726 20.2449C13.7742 20.0024 13.7495 19.7511 13.6548 19.5226C13.5602 19.2942 13.4 19.099 13.1945 18.9617C12.9889 18.8243 12.7472 18.751 12.5 18.751C12.1686 18.7513 11.8508 18.883 11.6164 19.1174C11.382 19.3518 11.2503 19.6696 11.25 20.001V20.001ZM19.25 13.251H19.499C19.8306 13.251 20.1487 13.1193 20.3832 12.8849C20.6178 12.6506 20.7497 12.3326 20.75 12.001V11.001C20.75 10.6694 20.6183 10.3513 20.3839 10.1168C20.1496 9.88218 19.8316 9.75027 19.5 9.75H19.25V13.251ZM3.25 11.001V12.001C3.25053 12.3323 3.38243 12.6498 3.61676 12.8839C3.8511 13.1181 4.16873 13.2497 4.5 13.25H4.75V9.75H4.5C4.16839 9.75027 3.85045 9.88218 3.61606 10.1168C3.38166 10.3513 3.25 10.6694 3.25 11.001V11.001Z" fill="#DAD9E1"/>
</svg>
