<svg width="36" height="36" viewBox="0 0 36 36" fill="none" xmlns="http://www.w3.org/2000/svg">
<path d="M29.29 34H6.71C6.48675 34.0013 6.26543 33.9586 6.05867 33.8744C5.85191 33.7902 5.66377 33.6661 5.50498 33.5091C5.34619 33.3522 5.21987 33.1655 5.13322 32.9598C5.04658 32.754 5.00131 32.5332 5 32.31V6.68999C5.00594 6.44261 5.06426 6.19931 5.17114 5.97614C5.27801 5.75296 5.43099 5.55499 5.62 5.39528C5.809 5.23557 6.02972 5.11776 6.2676 5.04962C6.50548 4.98148 6.7551 4.96457 7 4.99999H9V6.99999H7V32H29V6.99999H27V4.99999H29.25C29.4766 4.99332 29.7022 5.03203 29.9136 5.11384C30.125 5.19566 30.3179 5.31892 30.481 5.47639C30.644 5.63385 30.7739 5.82234 30.8631 6.03076C30.9522 6.23917 30.9988 6.46331 31 6.68999V32.31C30.9987 32.5332 30.9534 32.754 30.8668 32.9598C30.7801 33.1655 30.6538 33.3522 30.495 33.5091C30.3362 33.6661 30.1481 33.7902 29.9413 33.8744C29.7346 33.9586 29.5132 34.0013 29.29 34V34Z" fill="#DAD9E1"/>
<path d="M16.66 25.76L11.3 20.4C11.1374 20.2075 11.0535 19.9608 11.065 19.7092C11.0764 19.4575 11.1825 19.2195 11.3619 19.0426C11.5413 18.8657 11.7808 18.7631 12.0326 18.7552C12.2844 18.7473 12.5299 18.8347 12.72 19L16.66 22.94L25.3 14.3C25.4913 14.1362 25.7374 14.0506 25.9891 14.0603C26.2407 14.07 26.4795 14.1743 26.6576 14.3524C26.8357 14.5305 26.94 14.7693 26.9497 15.0209C26.9594 15.2726 26.8738 15.5187 26.71 15.71L16.66 25.76Z" fill="#DAD9E1"/>
<path d="M26 11H10V7.33C10.0026 6.71286 10.249 6.12174 10.6853 5.68535C11.1217 5.24896 11.7129 5.00263 12.33 5H14.12C14.3403 4.13959 14.8407 3.37696 15.5423 2.83236C16.2439 2.28776 17.1068 1.99216 17.995 1.99216C18.8832 1.99216 19.7461 2.28776 20.4477 2.83236C21.1493 3.37696 21.6497 4.13959 21.87 5H23.66C24.2789 4.99999 24.8726 5.24516 25.3111 5.68183C25.7497 6.11851 25.9974 6.71113 26 7.33V11ZM12 9H24V7.33C24 7.24248 23.9652 7.15854 23.9033 7.09665C23.8415 7.03477 23.7575 7 23.67 7H20V6C20 5.46957 19.7893 4.96086 19.4142 4.58579C19.0391 4.21071 18.5304 4 18 4C17.4696 4 16.9609 4.21071 16.5858 4.58579C16.2107 4.96086 16 5.46957 16 6V7H12.33C12.2867 7 12.2438 7.00854 12.2037 7.02512C12.1637 7.0417 12.1273 7.06601 12.0967 7.09665C12.066 7.1273 12.0417 7.16368 12.0251 7.20371C12.0085 7.24375 12 7.28666 12 7.33V9Z" fill="#DAD9E1"/>
</svg>
