<svg width="612" height="612" viewBox="0 0 612 612" fill="none" xmlns="http://www.w3.org/2000/svg">
<g clip-path="url(#clip0_12_2)">
<path d="M616.607 389.573C619.797 383.699 619.797 376.594 616.607 370.72C558.143 263.077 444.108 190 313.001 190C181.894 190 67.8565 263.078 9.3925 370.72C6.2025 376.594 6.2025 383.699 9.3925 389.573C67.8575 497.216 181.892 570.294 313 570.294C444.108 570.294 558.142 497.216 616.607 389.573ZM313 526.002C232.446 526.002 167.145 460.7 167.145 380.147C167.145 299.594 232.446 234.291 313 234.291C393.554 234.291 458.855 299.593 458.855 380.147C458.855 460.701 393.554 526.002 313 526.002Z" fill="#DAD9E1"/>
<path d="M313 305.817C306.864 305.817 300.905 306.566 295.202 307.967C301.043 314.727 304.585 323.53 304.585 333.165C304.585 354.465 287.318 371.733 266.017 371.733C256.382 371.733 247.579 368.192 240.819 362.35C239.418 368.053 238.669 374.012 238.669 380.148C238.669 421.2 271.948 454.478 312.999 454.478C354.05 454.478 387.329 421.199 387.329 380.148C387.329 339.097 354.052 305.817 313 305.817Z" fill="#DAD9E1"/>
</g>
<defs>
<clipPath id="clip0_12_2">
<rect width="612" height="612" fill="white"/>
</clipPath>
</defs>
</svg>
